<svg xmlns="http://www.w3.org/2000/svg" viewBox="0 0 1491.4 235.57"><defs><style>.cls-1{fill:#fd1e6e;}.cls-2{fill:#fff;}.cls-3,.cls-5{fill:none;stroke:#fd1e6e;stroke-miterlimit:10;}.cls-3{stroke-width:4px;}.cls-4{fill:#0f2346;}.cls-5{stroke-width:6px;}</style></defs><g id="Capa_2" data-name="Capa 2"><g id="Capa_1-2" data-name="Capa 1"><path class="cls-1" d="M230.48,16.35V190a20.19,20.19,0,0,1-.24,3.22l-2.66-.31a17.4,17.4,0,0,0,.22-2.91V16.35c0-3.4-.76-5.85-2.28-7.37s-4-2.28-7.37-2.28H174.73a12.63,12.63,0,0,0-7.1,1.87,17.64,17.64,0,0,0-5.22,6.17L138.55,58.42a21.79,21.79,0,0,1-2.27,3.49A3.24,3.24,0,0,1,133.73,63h-2.41a3.24,3.24,0,0,1-2.55-1.07,21.7,21.7,0,0,1-2.28-3.49l-5.69-10.3L123,46.9l2.41-4.29c.71-1.25,1.48-2.45,2.28-3.62a12.78,12.78,0,0,1,2.55-2.81L164.82,7.23a16.7,16.7,0,0,1,4.42-2.41,16.74,16.74,0,0,1,5.49-.8h43.42q6.43,0,9.38,3T230.48,16.35Z"/><path class="cls-1" d="M227.58,192.92l2.66.31a13,13,0,0,1-.7,2.68,10.2,10.2,0,0,1-2.81,4l-.08.07-1.74-2.09a5.15,5.15,0,0,0,.61-.53A8,8,0,0,0,227.58,192.92Z"/><path class="cls-2" d="M227.8,16.35V190a17.4,17.4,0,0,1-.22,2.91,8,8,0,0,1-2.06,4.46,5.15,5.15,0,0,1-.61.53q-2.31,1.76-6.76,1.75H176.88q-5.1,0-7.37-2.28c-1.52-1.52-2.28-4-2.28-7.37V95.67l-15.81,29.22a14.35,14.35,0,0,1-14.21,8.57H126.49a14.34,14.34,0,0,1-14.2-8.57L96.48,95.67V190a17.4,17.4,0,0,1-.22,2.91,8,8,0,0,1-2.06,4.46,5.15,5.15,0,0,1-.61.53q-2.31,1.76-6.76,1.75H46.9q-5.1,0-7.37-2.28c-1.52-1.52-2.28-4-2.28-7.37V16.35c0-3.4.76-5.85,2.28-7.37s4-2.28,7.37-2.28H90.05a12.65,12.65,0,0,1,7.1,1.87,17.64,17.64,0,0,1,5.22,6.17L120.8,48.12l5.69,10.3a21.7,21.7,0,0,0,2.28,3.49A3.24,3.24,0,0,0,131.32,63h2.41a3.24,3.24,0,0,0,2.55-1.07,21.79,21.79,0,0,0,2.27-3.49l23.86-43.68a17.64,17.64,0,0,1,5.22-6.17,12.63,12.63,0,0,1,7.1-1.87h43.42q5.08,0,7.37,2.28C227,10.5,227.8,13,227.8,16.35ZM197.51,175.54V39.13q0-4.29-1.74-6.3t-5.49-2h-4.56a9.63,9.63,0,0,0-4.15.94A8.73,8.73,0,0,0,178,35.37l-32.7,49.85a65.41,65.41,0,0,1-6.7,9.11c-1.43,1.44-3.75,2.15-7,2.15s-5.54-.71-7-2.15a64.58,64.58,0,0,1-6.7-9.11L85.22,35.37a8.48,8.48,0,0,0-3.75-3.61,10.56,10.56,0,0,0-4.29-.94H72.63a6.54,6.54,0,0,0-5.23,2q-1.74,2-1.74,6.3V175.54h2.68V39.13a9.27,9.27,0,0,1,.8-3.89c.54-1.16,1.7-1.74,3.49-1.74h4A10,10,0,0,1,80,34c1,.36,2,1.44,3.08,3.22l32.69,49.31a82.45,82.45,0,0,0,7.37,9.92c1.7,1.79,4.51,2.68,8.45,2.68s6.74-.89,8.44-2.68a83.56,83.56,0,0,0,7.37-9.92l32.69-49.31c1.08-1.78,2.06-2.86,2.95-3.22a8.83,8.83,0,0,1,3.22-.53h4c1.78,0,3,.58,3.62,1.74a8.13,8.13,0,0,1,.93,3.89V175.54Z"/><path class="cls-1" d="M224.91,197.91l1.74,2.09-34.76,28.87a9.17,9.17,0,0,1-3.35,1.88,15,15,0,0,1-5,.8H142.31q-6.7,0-9.52-3T130,219.22V148.47L114.17,161.6a14.58,14.58,0,0,1-5,2.82,21,21,0,0,1-6.57.93H99.16V190a20.19,20.19,0,0,1-.24,3.22l-2.66-.31a17.4,17.4,0,0,0,.22-2.91V95.67l15.81,29.22a14.34,14.34,0,0,0,14.2,8.57h10.72a14.35,14.35,0,0,0,14.21-8.57l15.81-29.22V190c0,3.4.76,5.85,2.28,7.37s4,2.28,7.37,2.28h41.27Q222.61,199.66,224.91,197.91Z"/><path class="cls-1" d="M197.51,39.13V175.54h-2.68V39.13a8.13,8.13,0,0,0-.93-3.89c-.63-1.16-1.84-1.74-3.62-1.74h-4A8.83,8.83,0,0,0,183,34c-.89.36-1.87,1.44-2.95,3.22L147.4,86.56A83.56,83.56,0,0,1,140,96.48c-1.7,1.79-4.52,2.68-8.44,2.68s-6.75-.89-8.45-2.68a82.45,82.45,0,0,1-7.37-9.92L83.08,37.25C82,35.47,81,34.39,80,34a10,10,0,0,0-3.35-.53h-4c-1.79,0-2.95.58-3.49,1.74a9.27,9.27,0,0,0-.8,3.89V175.54H65.66V39.13q0-4.29,1.74-6.3a6.54,6.54,0,0,1,5.23-2h4.55a10.56,10.56,0,0,1,4.29.94,8.48,8.48,0,0,1,3.75,3.61l32.7,49.85a64.58,64.58,0,0,0,6.7,9.11c1.43,1.44,3.75,2.15,7,2.15s5.53-.71,7-2.15a65.41,65.41,0,0,0,6.7-9.11L178,35.37a8.73,8.73,0,0,1,3.62-3.61,9.63,9.63,0,0,1,4.15-.94h4.56q3.75,0,5.49,2T197.51,39.13Z"/><path class="cls-1" d="M104.79,13.4,123,46.9l-2.21,1.22L102.37,14.74a17.64,17.64,0,0,0-5.22-6.17,12.65,12.65,0,0,0-7.1-1.87H46.9Q41.8,6.7,39.53,9c-1.52,1.52-2.28,4-2.28,7.37V190c0,3.4.76,5.85,2.28,7.37s4,2.28,7.37,2.28H86.83q4.45,0,6.76-1.75L95.33,200,60.57,228.87a9.17,9.17,0,0,1-3.35,1.88,15,15,0,0,1-5,.8H12.33q-6.44,0-9.38-3T0,219.22V45.56a16.26,16.26,0,0,1,.94-5.9,9.86,9.86,0,0,1,2.81-4L38.32,6.43a10.62,10.62,0,0,1,3.62-1.74,17.39,17.39,0,0,1,5-.67H90.05a15.39,15.39,0,0,1,8.44,2.14A20.77,20.77,0,0,1,104.79,13.4Z"/><path class="cls-1" d="M96.26,192.92l2.66.31a13,13,0,0,1-.7,2.68,10.2,10.2,0,0,1-2.81,4l-.08.07-1.74-2.09a5.15,5.15,0,0,0,.61-.53A8,8,0,0,0,96.26,192.92Z"/><path class="cls-3" d="M131.59,96.48c3.21,0,5.53-.71,7-2.15a65.41,65.41,0,0,0,6.7-9.11L178,35.37a8.73,8.73,0,0,1,3.62-3.61,9.63,9.63,0,0,1,4.15-.94h4.56q3.75,0,5.49,2t1.74,6.3V175.54h-2.68V39.13a8.13,8.13,0,0,0-.93-3.89c-.63-1.16-1.84-1.74-3.62-1.74h-4A8.83,8.83,0,0,0,183,34c-.89.36-1.87,1.44-2.95,3.22L147.4,86.56A83.56,83.56,0,0,1,140,96.48c-1.7,1.79-4.52,2.68-8.44,2.68s-6.75-.89-8.45-2.68a82.45,82.45,0,0,1-7.37-9.92L83.08,37.25C82,35.47,81,34.39,80,34a10,10,0,0,0-3.35-.53h-4c-1.79,0-2.95.58-3.49,1.74a9.27,9.27,0,0,0-.8,3.89V175.54H65.66V39.13q0-4.29,1.74-6.3a6.54,6.54,0,0,1,5.23-2h4.55a10.56,10.56,0,0,1,4.29.94,8.48,8.48,0,0,1,3.75,3.61l32.7,49.85a64.58,64.58,0,0,0,6.7,9.11C126.05,95.77,128.37,96.48,131.59,96.48Z"/><path class="cls-1" d="M1491.4,57.62V149a71.72,71.72,0,0,1-3.48,22.78,39.06,39.06,0,0,1-12.6,18l-34.57,28.95q-9.39,8-26.26,12.46t-43.42,4.42q-26.27,0-43-5.49t-26.27-14.61a48.29,48.29,0,0,1-13.13-20.9,82.74,82.74,0,0,1-3.62-24.39V86.83a72.66,72.66,0,0,1,3.49-22.91,38.85,38.85,0,0,1,12.59-18.09L1336,16.88q9.38-8,26.13-12.46T1405.64,0q26.27,0,43,4.29t26.27,11.92a38.71,38.71,0,0,1,13,18.23A73.85,73.85,0,0,1,1491.4,57.62ZM1488.72,149V57.62a65.51,65.51,0,0,0-3.62-22.38A38.27,38.27,0,0,0,1472.24,18Q1463,10.72,1446.78,6.7t-41.14-4q-24.92,0-41.27,4T1338.78,18a38.22,38.22,0,0,0-12.87,17.29,65.75,65.75,0,0,0-3.62,22.38V149a65.69,65.69,0,0,0,3.62,22.37,37.42,37.42,0,0,0,12.87,17.16q9.24,7.1,25.59,11.12t41.27,4q24.93,0,41.14-4t25.46-11.12a37.47,37.47,0,0,0,12.86-17.16A65.45,65.45,0,0,0,1488.72,149Z"/><path class="cls-2" d="M1488.72,57.62V149a65.45,65.45,0,0,1-3.62,22.37,37.47,37.47,0,0,1-12.86,17.16q-9.24,7.1-25.46,11.12t-41.14,4q-24.92,0-41.27-4t-25.59-11.12a37.42,37.42,0,0,1-12.87-17.16,65.69,65.69,0,0,1-3.62-22.37V57.62a65.75,65.75,0,0,1,3.62-22.38A38.22,38.22,0,0,1,1338.78,18q9.24-7.23,25.59-11.25t41.27-4q24.93,0,41.14,4T1472.24,18a38.27,38.27,0,0,1,12.86,17.29A65.51,65.51,0,0,1,1488.72,57.62Zm-29.21,85.22V63.78q0-16.08-11.52-26.13t-42.88-10q-31.36,0-42.62,10t-11.25,26.13v79.06q0,16.08,11.25,26.13T1405.11,179q31.35,0,42.88-10.05T1459.51,142.84Z"/><path class="cls-1" d="M1459.51,63.78v79.06q0,16.08-11.52,26.13T1405.11,179q-31.36,0-42.62-10.05t-11.25-26.13V63.78q0-16.08,11.25-26.13t42.62-10q31.35,0,42.88,10T1459.51,63.78Zm-2.68,79.06V63.78q0-15-11-24.25t-40.73-9.25q-29.76,0-40.47,9.25t-10.72,24.25v79.06q0,15,10.72,24.26t40.47,9.24q29.75,0,40.73-9.24T1456.83,142.84Z"/><path class="cls-2" d="M1456.83,63.78v79.06q0,15-11,24.26t-40.73,9.24q-29.76,0-40.47-9.24t-10.72-24.26V63.78q0-15,10.72-24.25t40.47-9.25q29.75,0,40.73,9.25T1456.83,63.78Zm-28.68,75.58V67.27a11.3,11.3,0,0,0-4-8.71q-4-3.63-18.49-3.62t-18.49,3.62a11.3,11.3,0,0,0-4,8.71v72.09a11.61,11.61,0,0,0,4,9q4,3.61,18.49,3.61t18.49-3.61A11.61,11.61,0,0,0,1428.15,139.36Z"/><path class="cls-1" d="M1428.15,67.27v72.09a11.61,11.61,0,0,1-4,9q-4,3.61-18.49,3.61t-18.49-3.61a11.61,11.61,0,0,1-4-9V67.27a11.3,11.3,0,0,1,4-8.71q4-3.63,18.49-3.62t18.49,3.62A11.3,11.3,0,0,1,1428.15,67.27ZM1390.9,147.4V96.48a9.87,9.87,0,0,0-1.07-4.69,7,7,0,0,0-4-3.08v50.65a9.87,9.87,0,0,0,1.07,4.69A8.07,8.07,0,0,0,1390.9,147.4Z"/><path class="cls-4" d="M1390.9,96.48V147.4a8.07,8.07,0,0,1-4-3.35,9.87,9.87,0,0,1-1.07-4.69V88.71a7,7,0,0,1,4,3.08A9.87,9.87,0,0,1,1390.9,96.48Z"/><path class="cls-1" d="M1267.09,61.37V145a80.4,80.4,0,0,1-1.06,13.44l-2.63-.41a79.67,79.67,0,0,0,1-13V61.37q0-27.87-16.22-41.27T1198.48,6.7h-90.32q-5.09,0-7.37,2.28c-1.52,1.52-2.28,4-2.28,7.37V190c0,3.4.76,5.85,2.28,7.37s4,2.28,7.37,2.28h90.32q33.49,0,49.71-13.4a41,41,0,0,0,11.63-15.71l2.43,1.1a45.62,45.62,0,0,1-12,16.75l-34.84,28.95q-8.31,7-21.17,10.58t-30.28,3.62h-90.32q-6.43,0-9.38-3t-3-9.38V45.56a16.26,16.26,0,0,1,.94-5.9,9.86,9.86,0,0,1,2.81-4l34.58-29.21a10.66,10.66,0,0,1,3.61-1.74,17.39,17.39,0,0,1,5-.67h90.32q35.1,0,51.86,14.2T1267.09,61.37Z"/><path class="cls-1" d="M1266,158.43a59.74,59.74,0,0,1-1.33,6.1l-2.57-.68q.76-2.81,1.27-5.83Z"/><path class="cls-1" d="M1262.13,163.85l2.57.68a50.8,50.8,0,0,1-1.9,5.78c-.18.45-.36.9-.55,1.34l-2.43-1.1A51.2,51.2,0,0,0,1262.13,163.85Z"/><path class="cls-2" d="M1264.41,61.37V145a79.67,79.67,0,0,1-1,13q-.51,3-1.27,5.83a51.2,51.2,0,0,1-2.31,6.7,41,41,0,0,1-11.63,15.71q-16.21,13.4-49.71,13.4h-90.32q-5.09,0-7.37-2.28c-1.52-1.52-2.28-4-2.28-7.37V16.35c0-3.4.76-5.85,2.28-7.37s4-2.28,7.37-2.28h90.32q33.49,0,49.71,13.4T1264.41,61.37Zm-29,77.72v-71a63.83,63.83,0,0,0-1.6-14.61,26,26,0,0,0-6.17-11.79q-4.56-5-13-7.9t-22.11-3h-64.85V175.54h64.85q13.68,0,22.25-2.82t13.13-7.63a24.09,24.09,0,0,0,6-11.53A67.43,67.43,0,0,0,1235.46,139.09Z"/><path class="cls-1" d="M1235.46,68.07v71a67.43,67.43,0,0,1-1.47,14.47,24.09,24.09,0,0,1-6,11.53q-4.56,4.82-13.13,7.63t-22.25,2.82h-64.85V30.82h64.85q13.68,0,22.11,3t13,7.9a26,26,0,0,1,6.17,11.79A63.83,63.83,0,0,1,1235.46,68.07Zm-2.68,71v-71a55.85,55.85,0,0,0-1.61-13.67,24.4,24.4,0,0,0-5.89-11q-4.29-4.54-12.2-7.23t-20.5-2.68h-62.17V172.86h62.17q12.87,0,20.77-2.55t12.2-7a22.5,22.5,0,0,0,5.76-10.72A59.38,59.38,0,0,0,1232.78,139.09Z"/><path class="cls-2" d="M1232.78,68.07v71a59.38,59.38,0,0,1-1.47,13.53,22.5,22.5,0,0,1-5.76,10.72q-4.29,4.42-12.2,7t-20.77,2.55h-62.17V33.5h62.17q12.6,0,20.5,2.68t12.2,7.23a24.4,24.4,0,0,1,5.89,11A55.85,55.85,0,0,1,1232.78,68.07Zm-28.94,67.8V70.75c0-4.46-1-7.73-3.08-9.78s-5.23-3.08-9.52-3.08h-31.89V149h31.89q6.43,0,9.52-3.22T1203.84,135.87Z"/><path class="cls-1" d="M1203.84,70.75v65.12q0,6.7-3.08,9.92t-9.52,3.22h-31.89V57.89h31.89q6.43,0,9.52,3.08C1202.81,63,1203.84,66.29,1203.84,70.75Zm-37.25,75.58V100a14.35,14.35,0,0,0-1.08-5.89,6.63,6.63,0,0,0-3.48-3.49v55.75Z"/><path class="cls-4" d="M1166.59,100v46.37H1162V90.58a6.63,6.63,0,0,1,3.48,3.49A14.35,14.35,0,0,1,1166.59,100Z"/><path class="cls-1" d="M1045.19,85.22v35.91a20,20,0,0,1-.24,3.22l-2.66-.31a17.32,17.32,0,0,0,.22-2.91V85.22c0-3.39-.77-5.85-2.28-7.37s-4-2.28-7.37-2.28H961c-3.39,0-5.85.77-7.37,2.28s-2.27,4-2.27,7.37v35.91c0,3.4.75,5.86,2.27,7.37s4,2.28,7.37,2.28h71.83q4.46,0,6.76-1.75l1.75,2.07-34.51,29.16a14.1,14.1,0,0,1-3.75,1.74,16,16,0,0,1-4.82.67H926.46q-6.44,0-9.38-2.81t-3-9.51V114.43a16.2,16.2,0,0,1,.94-5.89,9.89,9.89,0,0,1,2.82-4l34.57-29.21a10.44,10.44,0,0,1,3.62-1.75,17.68,17.68,0,0,1,4.95-.67h71.83q6.44,0,9.38,2.82C1044.2,77.58,1045.19,80.76,1045.19,85.22Z"/><path class="cls-1" d="M1042.29,124l2.66.31a13.62,13.62,0,0,1-.7,2.68,10,10,0,0,1-2.82,4l-.06,0-1.75-2.07a6.09,6.09,0,0,0,.61-.53A8,8,0,0,0,1042.29,124Z"/><path class="cls-2" d="M1042.51,85.22v35.91a17.32,17.32,0,0,1-.22,2.91,8,8,0,0,1-2.06,4.46,6.09,6.09,0,0,1-.61.53q-2.31,1.75-6.76,1.75H961q-5.09,0-7.37-2.28c-1.52-1.51-2.27-4-2.27-7.37V85.22c0-3.39.75-5.85,2.27-7.37s4-2.28,7.37-2.28h71.83c3.39,0,5.85.77,7.37,2.28S1042.51,81.83,1042.51,85.22Zm-24.12,19.3v-2.68H975.51v2.68Z"/><rect class="cls-1" x="975.51" y="101.84" width="42.88" height="2.68"/><path class="cls-1" d="M901,57.62V149a71.72,71.72,0,0,1-3.48,22.78,38.91,38.91,0,0,1-12.6,18l-34.57,28.95q-9.37,8-26.26,12.46t-43.42,4.42q-26.26,0-43-5.49t-26.27-14.61a48.29,48.29,0,0,1-13.13-20.9,82.74,82.74,0,0,1-3.62-24.39V86.83a72.66,72.66,0,0,1,3.49-22.91,38.85,38.85,0,0,1,12.59-18.09l34.84-28.95q9.39-8,26.13-12.46T815.24,0q26.26,0,43,4.29t26.26,11.92a38.64,38.64,0,0,1,13,18.23A73.85,73.85,0,0,1,901,57.62ZM898.32,149V57.62a65.75,65.75,0,0,0-3.61-22.38A38.29,38.29,0,0,0,881.84,18Q872.6,10.72,856.38,6.7t-41.14-4q-24.91,0-41.27,4T748.38,18a38.29,38.29,0,0,0-12.87,17.29,65.75,65.75,0,0,0-3.61,22.38V149a65.69,65.69,0,0,0,3.61,22.37,37.49,37.49,0,0,0,12.87,17.16q9.24,7.1,25.59,11.12t41.27,4q24.93,0,41.14-4t25.46-11.12a37.49,37.49,0,0,0,12.87-17.16A65.69,65.69,0,0,0,898.32,149Z"/><path class="cls-2" d="M898.32,57.62V149a65.69,65.69,0,0,1-3.61,22.37,37.49,37.49,0,0,1-12.87,17.16q-9.24,7.1-25.46,11.12t-41.14,4q-24.91,0-41.27-4t-25.59-11.12a37.49,37.49,0,0,1-12.87-17.16A65.69,65.69,0,0,1,731.9,149V57.62a65.75,65.75,0,0,1,3.61-22.38A38.29,38.29,0,0,1,748.38,18Q757.62,10.72,774,6.7t41.27-4q24.93,0,41.14,4T881.84,18a38.29,38.29,0,0,1,12.87,17.29A65.75,65.75,0,0,1,898.32,57.62Zm-29.21,85.22V63.78q0-16.08-11.52-26.13t-42.88-10q-31.37,0-42.61,10T760.84,63.78v79.06q0,16.08,11.26,26.13T814.71,179q31.35,0,42.88-10.05T869.11,142.84Z"/><path class="cls-1" d="M869.11,63.78v79.06q0,16.08-11.52,26.13T814.71,179Q783.34,179,772.1,169t-11.26-26.13V63.78q0-16.08,11.26-26.13t42.61-10q31.35,0,42.88,10T869.11,63.78Zm-2.68,79.06V63.78q0-15-11-24.25t-40.73-9.25q-29.75,0-40.47,9.25T763.52,63.78v79.06q0,15,10.72,24.26t40.47,9.24q29.74,0,40.73-9.24T866.43,142.84Z"/><path class="cls-2" d="M866.43,63.78v79.06q0,15-11,24.26t-40.73,9.24q-29.75,0-40.47-9.24t-10.72-24.26V63.78q0-15,10.72-24.25t40.47-9.25q29.74,0,40.73,9.25T866.43,63.78Zm-28.67,75.58V67.27a11.3,11.3,0,0,0-4-8.71q-4-3.63-18.5-3.62t-18.49,3.62a11.3,11.3,0,0,0-4,8.71v72.09a11.61,11.61,0,0,0,4,9q4,3.61,18.49,3.61t18.5-3.61A11.61,11.61,0,0,0,837.76,139.36Z"/><path class="cls-1" d="M837.76,67.27v72.09a11.61,11.61,0,0,1-4,9q-4,3.61-18.5,3.61t-18.49-3.61a11.61,11.61,0,0,1-4-9V67.27a11.3,11.3,0,0,1,4-8.71q4-3.63,18.49-3.62t18.5,3.62A11.3,11.3,0,0,1,837.76,67.27ZM800.5,147.4V96.48a9.87,9.87,0,0,0-1.07-4.69,6.94,6.94,0,0,0-4-3.08v50.65a9.87,9.87,0,0,0,1.07,4.69A8.15,8.15,0,0,0,800.5,147.4Z"/><path class="cls-4" d="M800.5,96.48V147.4a8.15,8.15,0,0,1-4-3.35,9.87,9.87,0,0,1-1.07-4.69V88.71a6.94,6.94,0,0,1,4,3.08A9.87,9.87,0,0,1,800.5,96.48Z"/><path class="cls-1" d="M673.74,16.35V190h-2.68V16.35c0-3.4-.76-5.85-2.27-7.37s-4-2.28-7.37-2.28H618a12.6,12.6,0,0,0-7.1,1.87,17.65,17.65,0,0,0-5.23,6.17L581.82,58.42a21.7,21.7,0,0,1-2.28,3.49A3.22,3.22,0,0,1,577,63h-2.42A3.21,3.21,0,0,1,572,61.91a21,21,0,0,1-2.28-3.49l-5.69-10.3,2.21-1.22,2.41-4.29c.71-1.25,1.47-2.45,2.28-3.62a13,13,0,0,1,2.54-2.81L608.08,7.23A15.06,15.06,0,0,1,618,4h43.42q6.42,0,9.38,3T673.74,16.35Z"/><path class="cls-1" d="M671.06,190h2.68a16.49,16.49,0,0,1-.93,5.9,10.12,10.12,0,0,1-2.82,4l-34.84,28.94a9,9,0,0,1-3.35,1.88,15,15,0,0,1-5,.8H585.57q-6.71,0-9.51-3t-2.82-9.38V148.47L557.43,161.6a14.39,14.39,0,0,1-5,2.82,20.89,20.89,0,0,1-6.56.93h-3.49V190h-2.68V95.67l15.82,29.22a14.34,14.34,0,0,0,14.2,8.57h10.72a14.34,14.34,0,0,0,14.2-8.57L610.5,95.67V190c0,3.4.75,5.85,2.27,7.37s4,2.28,7.37,2.28h41.28q5.08,0,7.37-2.28C670.3,195.86,671.06,193.41,671.06,190Z"/><path class="cls-2" d="M671.06,16.35V190c0,3.4-.76,5.85-2.27,7.37s-4,2.28-7.37,2.28H620.14q-5.08,0-7.37-2.28c-1.52-1.52-2.27-4-2.27-7.37V95.67l-15.82,29.22a14.34,14.34,0,0,1-14.2,8.57H569.76a14.34,14.34,0,0,1-14.2-8.57L539.74,95.67V190c0,3.4-.76,5.85-2.27,7.37s-4,2.28-7.37,2.28H490.16q-5.09,0-7.37-2.28c-1.52-1.52-2.27-4-2.27-7.37V16.35c0-3.4.75-5.85,2.27-7.37s4-2.28,7.37-2.28h43.15a12.6,12.6,0,0,1,7.1,1.87,17.65,17.65,0,0,1,5.23,6.17l18.43,33.38,5.69,10.3A21,21,0,0,0,572,61.91,3.21,3.21,0,0,0,574.58,63H577a3.22,3.22,0,0,0,2.54-1.07,21.7,21.7,0,0,0,2.28-3.49l23.85-43.68a17.65,17.65,0,0,1,5.23-6.17A12.6,12.6,0,0,1,618,6.7h43.42q5.08,0,7.37,2.28C670.3,10.5,671.06,13,671.06,16.35ZM640.78,175.54V39.13q0-4.29-1.74-6.3t-5.5-2H629a9.68,9.68,0,0,0-4.16.94,8.71,8.71,0,0,0-3.61,3.61l-32.7,49.85a65.41,65.41,0,0,1-6.7,9.11c-1.43,1.44-3.75,2.15-7,2.15s-5.54-.71-7-2.15a65.41,65.41,0,0,1-6.7-9.11L528.49,35.37a8.53,8.53,0,0,0-3.75-3.61,10.59,10.59,0,0,0-4.29-.94h-4.56a6.53,6.53,0,0,0-5.22,2q-1.76,2-1.75,6.3V175.54h2.68V39.13a9.12,9.12,0,0,1,.81-3.89q.8-1.74,3.48-1.74h4a9.94,9.94,0,0,1,3.35.53c1,.36,2,1.44,3.08,3.22L559,86.56a82.45,82.45,0,0,0,7.37,9.92q2.55,2.68,8.44,2.68t8.44-2.68a81.36,81.36,0,0,0,7.37-9.92l32.7-49.31c1.07-1.78,2-2.86,2.95-3.22a8.77,8.77,0,0,1,3.21-.53h4c1.79,0,3,.58,3.62,1.74a8,8,0,0,1,.94,3.89V175.54Z"/><path class="cls-1" d="M640.78,39.13V175.54H638.1V39.13a8,8,0,0,0-.94-3.89c-.63-1.16-1.83-1.74-3.62-1.74h-4a8.77,8.77,0,0,0-3.21.53c-.9.36-1.88,1.44-2.95,3.22l-32.7,49.31a81.36,81.36,0,0,1-7.37,9.92q-2.55,2.68-8.44,2.68t-8.44-2.68A82.45,82.45,0,0,1,559,86.56l-32.7-49.31c-1.07-1.78-2.1-2.86-3.08-3.22a9.94,9.94,0,0,0-3.35-.53h-4q-2.68,0-3.48,1.74a9.12,9.12,0,0,0-.81,3.89V175.54h-2.68V39.13q0-4.29,1.75-6.3a6.53,6.53,0,0,1,5.22-2h4.56a10.59,10.59,0,0,1,4.29.94,8.53,8.53,0,0,1,3.75,3.61l32.69,49.85a65.41,65.41,0,0,0,6.7,9.11c1.43,1.44,3.76,2.15,7,2.15s5.54-.71,7-2.15a65.41,65.41,0,0,0,6.7-9.11l32.7-49.85a8.71,8.71,0,0,1,3.61-3.61,9.68,9.68,0,0,1,4.16-.94h4.55q3.75,0,5.5,2T640.78,39.13Z"/><path class="cls-1" d="M548.05,13.4l18.23,33.5-2.21,1.22L545.64,14.74a17.65,17.65,0,0,0-5.23-6.17,12.6,12.6,0,0,0-7.1-1.87H490.16q-5.09,0-7.37,2.28c-1.52,1.52-2.27,4-2.27,7.37V190c0,3.4.75,5.85,2.27,7.37s4,2.28,7.37,2.28H530.1q5.08,0,7.37-2.28c1.51-1.52,2.27-4,2.27-7.37h2.68a16.49,16.49,0,0,1-.93,5.9,10.12,10.12,0,0,1-2.82,4l-34.84,28.94a9,9,0,0,1-3.35,1.88,15,15,0,0,1-5,.8H455.59q-6.43,0-9.38-3t-2.95-9.38V45.56a16.26,16.26,0,0,1,.94-5.9,9.89,9.89,0,0,1,2.82-4L481.59,6.43a10.62,10.62,0,0,1,3.62-1.74,17.32,17.32,0,0,1,5-.67h43.15a15.37,15.37,0,0,1,8.44,2.14A20.67,20.67,0,0,1,548.05,13.4Z"/><path class="cls-1" d="M423.43,158.12V190h-2.68V158.12q0-5.09-2.27-7.37t-7.37-2.28h-26v-90h26q5.08,0,7.37-2.28t2.27-7.37h2.68a16.45,16.45,0,0,1-.93,5.9,10,10,0,0,1-2.82,4l-31.89,26.8v60.3h23.32q6.42,0,9.38,3T423.43,158.12Z"/><path class="cls-1" d="M423.43,16.35V48.77h-2.68V16.35c0-3.4-.76-5.85-2.27-7.37s-4-2.28-7.37-2.28H296.94q-5.1,0-7.37,2.28c-1.52,1.52-2.28,4-2.28,7.37V48.77q0,5.1,2.28,7.37t7.37,2.28h26.53v90.05H296.94q-5.1,0-7.37,2.28t-2.28,7.37V190c0,3.4.76,5.85,2.28,7.37s4,2.28,7.37,2.28H411.11q5.08,0,7.37-2.28c1.51-1.52,2.27-4,2.27-7.37h2.68a16.49,16.49,0,0,1-.93,5.9,10.12,10.12,0,0,1-2.82,4l-34.84,28.94a9,9,0,0,1-3.35,1.88,15,15,0,0,1-5,.8H262.37q-6.44,0-9.38-3t-3-9.38V187.33a16.26,16.26,0,0,1,.94-5.9,10,10,0,0,1,2.81-4l32.43-27.33V90.31H262.37q-6.44,0-9.38-2.94T250,78V45.56a16.26,16.26,0,0,1,.94-5.9,9.86,9.86,0,0,1,2.81-4L288.36,6.43A10.62,10.62,0,0,1,292,4.69a17.39,17.39,0,0,1,5-.67H411.11q6.42,0,9.38,3T423.43,16.35Z"/><path class="cls-2" d="M420.75,158.12V190c0,3.4-.76,5.85-2.27,7.37s-4,2.28-7.37,2.28H296.94q-5.1,0-7.37-2.28c-1.52-1.52-2.28-4-2.28-7.37V158.12q0-5.09,2.28-7.37t7.37-2.28h26.53v-90H296.94q-5.1,0-7.37-2.28t-2.28-7.37V16.35c0-3.4.76-5.85,2.28-7.37s4-2.28,7.37-2.28H411.11q5.08,0,7.37,2.28c1.51,1.52,2.27,4,2.27,7.37V48.77q0,5.1-2.27,7.37t-7.37,2.28h-26v90.05h26q5.08,0,7.37,2.28T420.75,158.12Zm-24.12,17.42v-2.68h-41V33.5h41V30.82H311.41V33.5H353V172.86H311.41v2.68Z"/><polygon class="cls-1" points="396.63 172.86 396.63 175.54 311.41 175.54 311.41 172.86 352.95 172.86 352.95 33.5 311.41 33.5 311.41 30.82 396.63 30.82 396.63 33.5 355.63 33.5 355.63 172.86 396.63 172.86"/><polygon class="cls-3" points="396.63 175.54 311.41 175.54 311.41 172.86 352.95 172.86 352.95 33.5 311.41 33.5 311.41 30.82 396.63 30.82 396.63 33.5 355.63 33.5 355.63 172.86 396.63 172.86 396.63 175.54"/><path class="cls-3" d="M574.85,96.48c3.22,0,5.54-.71,7-2.15a65.41,65.41,0,0,0,6.7-9.11l32.7-49.85a8.71,8.71,0,0,1,3.61-3.61,9.68,9.68,0,0,1,4.16-.94h4.55q3.75,0,5.5,2t1.74,6.3V175.54H638.1V39.13a8,8,0,0,0-.94-3.89c-.63-1.16-1.83-1.74-3.62-1.74h-4a8.77,8.77,0,0,0-3.21.53c-.9.36-1.88,1.44-2.95,3.22l-32.7,49.31a81.36,81.36,0,0,1-7.37,9.92q-2.55,2.68-8.44,2.68t-8.44-2.68A82.45,82.45,0,0,1,559,86.56l-32.7-49.31c-1.07-1.78-2.1-2.86-3.08-3.22a9.94,9.94,0,0,0-3.35-.53h-4q-2.68,0-3.48,1.74a9.12,9.12,0,0,0-.81,3.89V175.54h-2.68V39.13q0-4.29,1.75-6.3a6.53,6.53,0,0,1,5.22-2h4.56a10.59,10.59,0,0,1,4.29.94,8.53,8.53,0,0,1,3.75,3.61l32.69,49.85a65.41,65.41,0,0,0,6.7,9.11C569.31,95.77,571.64,96.48,574.85,96.48Z"/><path class="cls-3" d="M763.52,142.84q0,15,10.72,24.26t40.47,9.24q29.74,0,40.73-9.24t11-24.26V63.78q0-15-11-24.25t-40.73-9.25q-29.75,0-40.47,9.25T763.52,63.78Z"/><rect class="cls-3" x="975.51" y="101.84" width="42.88" height="2.68"/><path class="cls-5" d="M1192.58,33.5h-62.17V172.86h62.17q12.87,0,20.77-2.55t12.2-7a22.5,22.5,0,0,0,5.76-10.72,59.38,59.38,0,0,0,1.47-13.53v-71a55.85,55.85,0,0,0-1.61-13.67,24.4,24.4,0,0,0-5.89-11q-4.29-4.54-12.2-7.23T1192.58,33.5Z"/><path class="cls-3" d="M1353.92,142.84q0,15,10.72,24.26t40.47,9.24q29.75,0,40.73-9.24t11-24.26V63.78q0-15-11-24.25t-40.73-9.25q-29.76,0-40.47,9.25t-10.72,24.25Z"/></g></g></svg>