<svg xmlns="http://www.w3.org/2000/svg" viewBox="0 0 230.48 227.53"><defs><style>.cls-1{fill:#fd1e6e;}.cls-2{fill:#fff;}.cls-3{fill:none;stroke:#fd1e6e;stroke-miterlimit:10;stroke-width:4px;}</style></defs><g id="Capa_2" data-name="Capa 2"><g id="Capa_1-2" data-name="Capa 1"><path class="cls-1" d="M230.48,12.33V186a20.19,20.19,0,0,1-.24,3.22l-2.66-.31a17.4,17.4,0,0,0,.22-2.91V12.33c0-3.4-.76-5.85-2.28-7.37s-4-2.28-7.37-2.28H174.73a12.63,12.63,0,0,0-7.1,1.87,17.64,17.64,0,0,0-5.22,6.17L138.55,54.4a21.79,21.79,0,0,1-2.27,3.49A3.24,3.24,0,0,1,133.73,59h-2.41a3.24,3.24,0,0,1-2.55-1.07,21.7,21.7,0,0,1-2.28-3.49L120.8,44.1,123,42.88l2.41-4.29c.71-1.25,1.48-2.45,2.28-3.62a12.78,12.78,0,0,1,2.55-2.81L164.82,3.21A16.7,16.7,0,0,1,169.24.8a16.74,16.74,0,0,1,5.49-.8h43.42q6.43,0,9.38,3T230.48,12.33Z"/><path class="cls-1" d="M227.58,188.9l2.66.31a13,13,0,0,1-.7,2.68,10.2,10.2,0,0,1-2.81,4l-.08.07-1.74-2.09a5.15,5.15,0,0,0,.61-.53A8,8,0,0,0,227.58,188.9Z"/><path class="cls-2" d="M227.8,12.33V186a17.4,17.4,0,0,1-.22,2.91,8,8,0,0,1-2.06,4.46,5.15,5.15,0,0,1-.61.53q-2.31,1.76-6.76,1.75H176.88q-5.1,0-7.37-2.28c-1.52-1.52-2.28-4-2.28-7.37V91.65l-15.81,29.22a14.35,14.35,0,0,1-14.21,8.57H126.49a14.34,14.34,0,0,1-14.2-8.57L96.48,91.65V186a17.4,17.4,0,0,1-.22,2.91,8,8,0,0,1-2.06,4.46,5.15,5.15,0,0,1-.61.53q-2.31,1.76-6.76,1.75H46.9q-5.1,0-7.37-2.28c-1.52-1.52-2.28-4-2.28-7.37V12.33c0-3.4.76-5.85,2.28-7.37s4-2.28,7.37-2.28H90.05a12.65,12.65,0,0,1,7.1,1.87,17.64,17.64,0,0,1,5.22,6.17L120.8,44.1l5.69,10.3a21.7,21.7,0,0,0,2.28,3.49A3.24,3.24,0,0,0,131.32,59h2.41a3.24,3.24,0,0,0,2.55-1.07,21.79,21.79,0,0,0,2.27-3.49l23.86-43.68a17.64,17.64,0,0,1,5.22-6.17,12.63,12.63,0,0,1,7.1-1.87h43.42q5.08,0,7.37,2.28C227,6.48,227.8,8.93,227.8,12.33ZM197.51,171.52V35.11q0-4.29-1.74-6.3t-5.49-2h-4.56a9.63,9.63,0,0,0-4.15.94A8.73,8.73,0,0,0,178,31.35L145.25,81.2a65.41,65.41,0,0,1-6.7,9.11c-1.43,1.44-3.75,2.15-7,2.15s-5.54-.71-7-2.15a64.58,64.58,0,0,1-6.7-9.11L85.22,31.35a8.48,8.48,0,0,0-3.75-3.61,10.56,10.56,0,0,0-4.29-.94H72.63a6.54,6.54,0,0,0-5.23,2q-1.74,2-1.74,6.3V171.52h2.68V35.11a9.27,9.27,0,0,1,.8-3.89c.54-1.16,1.7-1.74,3.49-1.74h4A10,10,0,0,1,80,30c1,.36,2,1.44,3.08,3.22l32.69,49.31a82.45,82.45,0,0,0,7.37,9.92c1.7,1.79,4.51,2.68,8.45,2.68s6.74-.89,8.44-2.68a83.56,83.56,0,0,0,7.37-9.92l32.69-49.31c1.08-1.78,2.06-2.86,2.95-3.22a8.83,8.83,0,0,1,3.22-.53h4c1.78,0,3,.58,3.62,1.74a8.13,8.13,0,0,1,.93,3.89V171.52Z"/><path class="cls-1" d="M224.91,193.89l1.74,2.09-34.76,28.87a9.17,9.17,0,0,1-3.35,1.88,15,15,0,0,1-5,.8H142.31q-6.7,0-9.52-2.95T130,215.2V144.45l-15.81,13.13a14.58,14.58,0,0,1-5,2.82,21,21,0,0,1-6.57.93H99.16V186a20.19,20.19,0,0,1-.24,3.22l-2.66-.31a17.4,17.4,0,0,0,.22-2.91V91.65l15.81,29.22a14.34,14.34,0,0,0,14.2,8.57h10.72a14.35,14.35,0,0,0,14.21-8.57l15.81-29.22V186c0,3.4.76,5.85,2.28,7.37s4,2.28,7.37,2.28h41.27Q222.61,195.64,224.91,193.89Z"/><path class="cls-1" d="M197.51,35.11V171.52h-2.68V35.11a8.13,8.13,0,0,0-.93-3.89c-.63-1.16-1.84-1.74-3.62-1.74h-4A8.83,8.83,0,0,0,183,30c-.89.36-1.87,1.44-2.95,3.22L147.4,82.54A83.56,83.56,0,0,1,140,92.46c-1.7,1.79-4.52,2.68-8.44,2.68s-6.75-.89-8.45-2.68a82.45,82.45,0,0,1-7.37-9.92L83.08,33.23C82,31.45,81,30.37,80,30a10,10,0,0,0-3.35-.53h-4c-1.79,0-2.95.58-3.49,1.74a9.27,9.27,0,0,0-.8,3.89V171.52H65.66V35.11q0-4.29,1.74-6.3a6.54,6.54,0,0,1,5.23-2h4.55a10.56,10.56,0,0,1,4.29.94,8.48,8.48,0,0,1,3.75,3.61l32.7,49.85a64.58,64.58,0,0,0,6.7,9.11c1.43,1.44,3.75,2.15,7,2.15s5.53-.71,7-2.15a65.41,65.41,0,0,0,6.7-9.11L178,31.35a8.73,8.73,0,0,1,3.62-3.61,9.63,9.63,0,0,1,4.15-.94h4.56q3.75,0,5.49,2T197.51,35.11Z"/><path class="cls-1" d="M104.79,9.38,123,42.88,120.8,44.1,102.37,10.72a17.64,17.64,0,0,0-5.22-6.17,12.65,12.65,0,0,0-7.1-1.87H46.9q-5.1,0-7.37,2.28c-1.52,1.52-2.28,4-2.28,7.37V186c0,3.4.76,5.85,2.28,7.37s4,2.28,7.37,2.28H86.83q4.45,0,6.76-1.75L95.33,196,60.57,224.85a9.17,9.17,0,0,1-3.35,1.88,15,15,0,0,1-5,.8H12.33q-6.44,0-9.38-2.95T0,215.2V41.54a16.26,16.26,0,0,1,.94-5.9,9.86,9.86,0,0,1,2.81-4L38.32,2.41A10.62,10.62,0,0,1,41.94.67a17.39,17.39,0,0,1,5-.67H90.05a15.39,15.39,0,0,1,8.44,2.14A20.77,20.77,0,0,1,104.79,9.38Z"/><path class="cls-1" d="M96.26,188.9l2.66.31a13,13,0,0,1-.7,2.68,10.2,10.2,0,0,1-2.81,4l-.08.07-1.74-2.09a5.15,5.15,0,0,0,.61-.53A8,8,0,0,0,96.26,188.9Z"/><path class="cls-3" d="M131.59,92.46c3.21,0,5.53-.71,7-2.15a65.41,65.41,0,0,0,6.7-9.11L178,31.35a8.73,8.73,0,0,1,3.62-3.61,9.63,9.63,0,0,1,4.15-.94h4.56q3.75,0,5.49,2t1.74,6.3V171.52h-2.68V35.11a8.13,8.13,0,0,0-.93-3.89c-.63-1.16-1.84-1.74-3.62-1.74h-4A8.83,8.83,0,0,0,183,30c-.89.36-1.87,1.44-2.95,3.22L147.4,82.54A83.56,83.56,0,0,1,140,92.46c-1.7,1.79-4.52,2.68-8.44,2.68s-6.75-.89-8.45-2.68a82.45,82.45,0,0,1-7.37-9.92L83.08,33.23C82,31.45,81,30.37,80,30a10,10,0,0,0-3.35-.53h-4c-1.79,0-2.95.58-3.49,1.74a9.27,9.27,0,0,0-.8,3.89V171.52H65.66V35.11q0-4.29,1.74-6.3a6.54,6.54,0,0,1,5.23-2h4.55a10.56,10.56,0,0,1,4.29.94,8.48,8.48,0,0,1,3.75,3.61l32.7,49.85a64.58,64.58,0,0,0,6.7,9.11C126.05,91.75,128.37,92.46,131.59,92.46Z"/></g></g></svg>